/vscmnt/brussel_pixiu_data/_data_brussel/112/vsc11236/PredSimResults/SUBJ09mtu3D/worker2.mot
version=1
nRows=4
nColumns=50
inDegrees=yes
endheader
                time	         pelvis_tilt	         pelvis_list	     pelvis_rotation	           pelvis_tx	           pelvis_ty	           pelvis_tz	       hip_flexion_r	     hip_adduction_r	      hip_rotation_r	        knee_angle_r	       ankle_angle_r	         mtp_angle_r	       hip_flexion_l	     hip_adduction_l	      hip_rotation_l	        knee_angle_l	       ankle_angle_l	         mtp_angle_l	    lumbar_extension	      lumbar_bending	     lumbar_rotation	 ercspn_r/activation	 intobl_r/activation	 extobl_r/activation	    abd_r/activation	    add_r/activation	hamstrings_r/activation	bifemsh_r/activation	glut_max_r/activation	iliopsoas_r/activation	rect_fem_r/activation	  vasti_r/activation	gastroc_r/activation	 soleus_r/activation	tib_ant_r/activation	 ercspn_l/activation	 intobl_l/activation	 extobl_l/activation	    abd_l/activation	    add_l/activation	hamstrings_l/activation	bifemsh_l/activation	glut_max_l/activation	iliopsoas_l/activation	rect_fem_l/activation	  vasti_l/activation	gastroc_l/activation	 soleus_l/activation	tib_ant_l/activation	
          0.00000000	         -6.66522315	         -1.45489046	          5.84089307	          0.00000000	          0.98937001	          0.00158737	         26.68140868	         -0.54667465	         -0.36416241	          2.74969366	         -1.43276338	          0.24498587	        -10.54150772	         -2.59207721	          4.57265921	         -9.54794112	          5.40520936	         35.08877787	        -13.28249816	         -1.45735611	         -3.76080597	          0.01203637	          0.20697627	          0.09891813	          0.03846362	          0.12780482	          0.07016487	          0.30753577	          0.01952341	          0.04849913	          0.01723956	          0.02769055	          0.01000166	          0.01000028	          0.41070949	          0.01000083	          0.01000051	          0.01000066	          0.02956796	          0.01000055	          0.03146085	          0.33705946	          0.01757096	          0.14823499	          0.01000118	          0.01001121	          0.40691296	          0.12896227	          0.01009148	
          0.01193566	         -6.66357269	         -1.60606369	          6.04511736	          0.01891710	          0.98758283	          0.00209521	         26.40942382	         -0.33253329	         -0.79988446	          1.54110437	         -1.96592578	          0.26616593	        -11.24565531	         -2.90071621	          4.44523099	        -10.12707090	          4.33872671	         36.80330291	        -12.84229888	         -1.02228970	         -3.81454040	          0.01003970	          0.17263469	          0.08250557	          0.04068382	          0.12213030	          0.06079002	          0.25651160	          0.06158094	          0.04045214	          0.01437935	          0.02309664	          0.01755615	          0.01437461	          0.42433242	          0.01000155	          0.01000148	          0.01970073	          0.02466208	          0.01000632	          0.04603839	          0.30822657	          0.01465861	          0.14794127	          0.01000081	          0.01000794	          0.37416702	          0.10756498	          0.01000009	
          0.02387132	         -6.65090678	         -1.76340459	          6.21716932	          0.03813756	          0.98598196	          0.00264566	         26.11717783	         -0.10280558	         -1.19250878	          0.08388747	         -2.50777427	          0.23769408	        -11.76822108	         -3.20047303	          4.28124149	        -11.07048684	          3.18177209	         38.51901797	        -12.37985250	         -0.57140955	         -3.85742385	          0.01000126	          0.14399104	          0.06881618	          0.07722643	          0.11768040	          0.06591303	          0.21395714	          0.10027199	          0.03374030	          0.01199372	          0.01926504	          0.01464344	          0.01198966	          0.48159968	          0.01000184	          0.01000506	          0.03620835	          0.02057018	          0.01376912	          0.05322851	          0.25709053	          0.01437787	          0.18123940	          0.01000080	          0.01001021	          0.31734851	          0.08971774	          0.01000015	
          0.03580699	         -6.63274839	         -1.93059479	          6.35475139	          0.05738999	          0.98480491	          0.00323777	         25.77878536	          0.14824347	         -1.51756712	         -1.24560243	         -3.23898873	          0.20601804	        -12.00612319	         -3.48662254	          4.09269122	        -12.50893878	          1.89620794	         40.19487419	        -11.92385685	         -0.10276416	         -3.88501540	          0.01000133	          0.12009994	          0.05739815	          0.12579170	          0.15716274	          0.06605773	          0.17845798	          0.14246251	          0.02814210	          0.01000410	          0.01606968	          0.01221399	          0.01000054	          0.52706328	          0.01000166	          0.01000288	          0.03020108	          0.01715722	          0.04151989	          0.04444147	          0.21443501	          0.01199364	          0.21606455	          0.01000056	          0.01000691	          0.26469371	          0.07483169	          0.01000010	
